<svg width="34" height="34" viewBox="0 0 34 34" fill="none" xmlns="http://www.w3.org/2000/svg">
<g clip-path="url(#clip0_211_2056)">
<path d="M31.7852 9.7008C31.7852 9.72434 31.7852 9.75376 31.779 9.77141C31.7484 10.0009 31.7484 10.2304 31.7667 10.4657C31.779 10.5246 31.7913 10.5834 31.8403 10.6305C31.92 10.7188 32.0426 10.7011 32.0917 10.5952C32.1162 10.5422 32.1162 10.4893 32.1039 10.4363C32.0426 10.2127 32.0304 9.97736 32.0243 9.74787C32.0243 9.73611 32.0243 9.71845 32.0243 9.7008C32.0917 9.69492 32.153 9.68903 32.2082 9.68903C32.2511 9.68315 32.2879 9.67726 32.3186 9.65961C32.4105 9.61254 32.4105 9.51251 32.3124 9.46543C32.2756 9.44778 32.2266 9.44189 32.1837 9.44189C32.0304 9.44778 31.8771 9.44778 31.7238 9.44778C31.6687 9.44778 31.6135 9.45367 31.5583 9.45955C31.5276 9.46543 31.4909 9.46543 31.4664 9.48309C31.4234 9.50074 31.3989 9.53016 31.3989 9.57135C31.405 9.61254 31.4234 9.63607 31.4664 9.65373C31.4909 9.67138 31.5215 9.67726 31.5522 9.67726C31.6257 9.68315 31.7055 9.69492 31.7852 9.7008ZM33.4711 9.97147C33.4711 9.97736 33.4772 9.98324 33.4772 9.98324C33.5018 10.1421 33.5263 10.2951 33.5447 10.4481C33.5508 10.501 33.557 10.5481 33.5937 10.5893C33.6734 10.6893 33.7961 10.6776 33.8512 10.5717C33.8758 10.5187 33.8819 10.4657 33.8696 10.4069C33.8328 10.2304 33.8144 10.0539 33.7777 9.88321C33.7531 9.77729 33.7225 9.67726 33.6918 9.58312C33.6734 9.52428 33.6305 9.48308 33.557 9.4772C33.4834 9.46543 33.4282 9.50074 33.3975 9.5537C33.3608 9.60077 33.3301 9.64784 33.3056 9.7008C33.2627 9.79495 33.2259 9.8891 33.1769 9.97736C33.1707 10.0009 33.1646 10.0185 33.1523 10.0362C33.1462 10.0244 33.1401 10.0185 33.1401 10.0185C33.0603 9.87144 32.9868 9.72434 32.9071 9.58312C32.8948 9.57135 32.8887 9.55958 32.8826 9.54781C32.8458 9.49486 32.8029 9.46543 32.7354 9.46543C32.6741 9.47132 32.625 9.50662 32.5944 9.55958C32.5821 9.58312 32.5821 9.60077 32.576 9.62431C32.5515 9.8126 32.5208 10.0009 32.4963 10.1892C32.484 10.2951 32.4779 10.401 32.4779 10.5069C32.4718 10.5305 32.4779 10.5599 32.4902 10.5834C32.5025 10.6305 32.5392 10.6599 32.5883 10.6658C32.6496 10.6717 32.6925 10.654 32.7109 10.607C32.7293 10.5717 32.7354 10.5422 32.7416 10.5128C32.7661 10.4069 32.7845 10.3069 32.8029 10.2068C32.8151 10.148 32.8212 10.1009 32.8397 10.0362C32.8519 10.0597 32.8641 10.0774 32.8764 10.095C32.9316 10.1657 32.9868 10.2363 33.0542 10.2951C33.1217 10.3422 33.1769 10.3363 33.232 10.2833C33.2443 10.2716 33.2504 10.2657 33.2627 10.2539C33.3179 10.1715 33.3853 10.0892 33.4405 10.0068C33.4527 9.99501 33.4589 9.98324 33.4711 9.97147Z" fill="#3A3B7B"/>
<path d="M19.3447 9.81647C19.3021 9.92829 19.294 10.0089 19.3136 10.0758C19.3354 10.1669 19.3918 10.1967 19.4683 10.1735C20.1884 10.0026 21.7675 10.4877 22.3521 10.6229C22.49 10.6513 22.6022 10.4805 22.5081 10.3273C22.3708 10.179 20.7924 9.544 20.1902 9.50938C19.9541 9.49657 19.5321 9.43847 19.3447 9.81647Z" fill="#3A3B7B"/>
<path d="M25.516 7.76084C25.5928 7.80335 25.6357 7.84391 25.6568 7.88922C25.6884 7.94866 25.6717 7.98978 25.6187 8.01077C25.1427 8.23374 24.5093 9.19368 24.2536 9.52475C24.1917 9.60091 24.0487 9.55666 24.0271 9.43141C24.0315 9.2898 24.593 8.24805 24.9064 7.96431C25.0295 7.85353 25.233 7.63617 25.516 7.76084Z" fill="#3A3B7B"/>
<path d="M21.7255 7.2882C21.8177 7.22151 21.9135 7.19814 21.9624 7.24148C22.6806 7.83098 23.0615 8.76451 23.2973 9.61913C23.3062 9.63904 23.3067 9.66761 23.2996 9.69742C23.2967 9.72289 23.2773 9.7498 23.2465 9.77063C23.2136 9.79362 23.1853 9.80062 23.1719 9.78081C22.8572 9.3699 21.0594 7.77112 21.7255 7.2882Z" fill="#3A3B7B"/>
<path d="M6.51682 17.5086C6.68895 17.3856 6.87608 17.2832 7.07411 17.2037C7.28129 17.1469 7.50211 17.1563 7.70322 17.2306C7.90428 17.3049 8.07473 17.44 8.18867 17.6156C8.2906 17.7906 8.33046 17.9928 8.30233 18.1915C8.27419 18.3902 8.17955 18.5748 8.03262 18.7174C7.91872 18.833 7.7894 18.9337 7.64812 19.0169C7.0184 19.4074 6.38307 19.7764 5.74777 20.1669C5.61777 20.2646 5.47987 20.3523 5.33537 20.429C5.11559 20.5342 4.86441 20.5624 4.62526 20.5086C4.38613 20.455 4.17407 20.3227 4.02575 20.1348C3.91488 20.0018 3.82131 19.8563 3.74711 19.7016C3.14524 18.4874 2.52108 17.2786 1.94151 16.043C1.67401 15.5082 1.45667 14.8931 1.2449 14.2994C1.15328 14.1269 1.13539 13.9269 1.19503 13.7419C1.25468 13.5569 1.38716 13.4016 1.56429 13.3089C1.74143 13.2163 1.94924 13.1936 2.14353 13.2457C2.33782 13.2978 2.50326 13.4206 2.60467 13.588C2.91638 13.9856 3.1923 14.4079 3.42946 14.8503C4.03132 15.92 4.60533 16.9898 5.18491 18.0274C5.21865 18.0848 5.25587 18.1401 5.29636 18.1932C5.73259 18.0172 6.14289 17.787 6.51682 17.5086Z" fill="#3A3B7B"/>
<path d="M12.7398 17.1354C11.3634 18.6811 9.05619 18.2907 7.89704 16.301C7.07224 14.8889 6.92736 12.5569 8.72184 11.086C9.10503 10.778 9.56323 10.5683 10.0537 10.4762C10.6551 10.3935 11.2684 10.4953 11.8059 10.7672C12.3433 11.039 12.7775 11.467 13.0464 11.9899C14.0272 13.7015 13.8879 15.8838 12.7398 17.1354ZM12.1826 13.5303C12.0363 13.1097 11.743 12.7507 11.3522 12.5141C11.1311 12.3628 10.8624 12.2893 10.5914 12.3058C10.3204 12.3224 10.0636 12.428 9.86426 12.605C9.06736 13.2843 8.90014 14.8943 9.47971 15.8517C9.5536 16.0078 9.66208 16.1465 9.79766 16.2582C9.93324 16.3699 10.0926 16.4518 10.2646 16.4981C10.4366 16.5445 10.617 16.5542 10.7934 16.5266C10.9697 16.499 11.1376 16.4348 11.2854 16.3384C11.7173 16.0169 12.0343 15.5743 12.192 15.072C12.3499 14.5697 12.3407 14.0327 12.1659 13.5357L12.1826 13.5303Z" fill="#3A3B7B"/>
<path d="M18.3572 14.2045C18.2163 14.2335 18.0707 14.2353 17.929 14.2095C17.7874 14.1838 17.6525 14.1312 17.5324 14.0547C17.4273 13.997 17.3368 13.9177 17.2675 13.8224C17.1982 13.7271 17.1517 13.6183 17.1315 13.5037C17.1112 13.3891 17.1177 13.2717 17.1504 13.1598C17.1831 13.0479 17.2413 12.9443 17.3207 12.8566C17.459 12.6802 17.6554 12.554 17.8779 12.4982C18.459 12.3364 19.0572 12.2377 19.6613 12.2041C19.794 12.1892 19.9284 12.2 20.0567 12.2358C20.1851 12.2716 20.3046 12.3315 20.4085 12.4123C20.5123 12.493 20.5983 12.5928 20.6614 12.7058C20.7244 12.8189 20.7633 12.9429 20.7758 13.0705C20.95 13.6977 20.969 14.3553 20.8315 14.9907C20.33 17.0446 18.6024 17.7506 16.663 17.0928C16.1187 16.9169 15.6413 16.5891 15.2921 16.1514C14.8264 15.6243 14.4961 14.9996 14.328 14.3275C14.1918 13.729 14.2067 13.108 14.3716 12.5163C14.5364 11.9245 14.8463 11.3791 15.2754 10.9257C15.6827 10.4329 16.2112 10.0451 16.8135 9.79714C17.1941 9.59581 17.6395 9.53856 18.0619 9.63668C18.1577 9.66213 18.2446 9.71172 18.3138 9.78032C18.3829 9.84891 18.4316 9.934 18.4549 10.0268C18.4783 10.1195 18.4753 10.2166 18.4463 10.3079C18.4174 10.3992 18.3635 10.4814 18.2903 10.546C18.1512 10.6669 18 10.7744 17.8389 10.8669C17.3435 11.1697 16.9123 11.5599 16.5683 12.0168C16.3428 12.3125 16.1875 12.6521 16.1134 13.0115C16.0392 13.371 16.048 13.7416 16.1392 14.0975C16.2656 14.5827 16.5461 15.0182 16.9417 15.3437C18.1677 16.4135 19.7615 15.3812 19.4829 13.921C19.0761 14.0173 18.7194 14.1189 18.3572 14.2045Z" fill="#3A3B7B"/>
<path d="M25.8472 17.2211C24.036 18.2908 21.974 17.2211 21.5226 14.9747C21.1938 13.3701 21.818 11.1236 24.0026 10.2678C24.4674 10.0896 24.9715 10.0271 25.4682 10.0859C26.065 10.1908 26.6125 10.4728 27.0334 10.8921C27.4543 11.3115 27.7275 11.847 27.8144 12.4233C28.1822 14.3328 27.3463 16.3707 25.8472 17.2211ZM26.4769 13.6214C26.4764 13.1771 26.3126 12.7471 26.0144 12.4073C25.855 12.1971 25.6245 12.0464 25.3623 11.9811C25.1001 11.9157 24.8224 11.9397 24.5765 12.0489C23.5957 12.4554 22.9047 13.9316 23.1555 15.0175C23.1747 15.1878 23.2323 15.3522 23.3245 15.4989C23.4167 15.6457 23.5412 15.7714 23.6894 15.8672C23.8374 15.9629 24.0055 16.0265 24.1819 16.0534C24.3582 16.0803 24.5386 16.0699 24.7103 16.023C25.2287 15.8492 25.6776 15.5243 25.9943 15.0938C26.3111 14.6632 26.4798 14.1485 26.4769 13.6214Z" fill="#3A3B7B"/>
<path d="M29.646 17.6705C29.6187 17.8662 29.5115 18.0436 29.3479 18.1634C29.1843 18.2833 28.9779 18.3359 28.7739 18.3097C28.5699 18.2834 28.3852 18.1805 28.2603 18.0235C28.1354 17.8665 28.0806 17.6683 28.108 17.4726C28.1353 17.2768 28.2426 17.0995 28.4061 16.9796C28.5697 16.8597 28.7761 16.8072 28.9801 16.8334C29.1841 16.8597 29.3688 16.9626 29.4937 17.1195C29.6186 17.2765 29.6734 17.4747 29.646 17.6705ZM29.1612 10.4551C29.2672 10.2997 29.4227 10.1814 29.6045 10.1178C29.7863 10.0542 29.9846 10.0486 30.1699 10.1021C30.3583 10.1473 30.5247 10.2533 30.6414 10.4023C30.7581 10.5512 30.8179 10.7342 30.8108 10.9204C30.7862 11.2192 30.7397 11.5159 30.6715 11.8083C30.4876 12.7978 30.3092 13.7873 30.1142 14.7661C30.025 15.1566 29.908 15.531 29.7798 15.9268C29.7352 16.0505 29.6607 16.1623 29.5625 16.2531C29.5014 16.3213 29.4234 16.3737 29.3356 16.4053C29.2479 16.4369 29.1532 16.4468 29.0604 16.434C28.9677 16.4212 28.8797 16.3862 28.8048 16.3321C28.7299 16.278 28.6704 16.2067 28.6318 16.1247C28.5656 15.9776 28.5296 15.8196 28.5259 15.6594C28.5259 14.9961 28.5259 14.3275 28.5705 13.6589C28.6463 12.7048 28.7953 11.7573 29.0163 10.8241C29.0424 10.6991 29.0914 10.5796 29.1612 10.4711V10.4551Z" fill="#3A3B7B"/>
<path fill-rule="evenodd" clip-rule="evenodd" d="M4.16219 21.9684C4.09639 22.1094 4.07834 22.2666 4.1105 22.4178C4.13189 22.6172 4.17887 22.8134 4.25038 23.0017C4.33966 23.2324 4.43955 23.4605 4.56273 23.7416C4.59106 23.8063 4.62066 23.8739 4.65164 23.9449C4.81775 24.3258 5.02617 24.8126 5.30418 25.517C5.38287 25.7171 5.45275 25.9189 5.52311 26.122C5.55154 26.2041 5.58006 26.2865 5.60926 26.369C5.71393 26.6624 5.89404 26.926 6.13276 27.135C6.23414 27.2498 6.3686 27.3335 6.51937 27.3753C6.67308 27.418 6.83656 27.4153 6.98864 27.3676C7.14072 27.3198 7.27429 27.2292 7.37202 27.1076C7.46783 26.9884 7.5248 26.8447 7.53588 26.6946C7.59803 26.4022 7.57682 26.099 7.47437 25.817C7.31178 25.3489 7.12656 24.8802 6.91298 24.4217L6.912 24.4197C6.56063 23.7023 6.20348 22.9899 5.82942 22.2773L5.82662 22.2723C5.71712 22.0866 5.57481 21.9206 5.40609 21.7818C5.29656 21.6579 5.14548 21.5743 4.97863 21.5455C4.80823 21.5161 4.63248 21.5457 4.48277 21.6292C4.34114 21.7068 4.22887 21.8256 4.16219 21.9684Z" fill="#3A3B7B"/>
<path fill-rule="evenodd" clip-rule="evenodd" d="M9.52871 20.202C8.97778 20.065 8.40242 20.0451 7.8427 20.1435C7.40918 20.1845 6.98281 20.2805 6.68673 20.4706C6.53615 20.5673 6.4144 20.6916 6.34668 20.8495C6.27859 21.0083 6.26989 21.1899 6.3257 21.3922C6.42758 21.7628 6.55989 22.1231 6.69173 22.4823L6.71309 22.5404L6.71361 22.5417C7.11058 23.5852 7.51135 24.6251 7.91575 25.6614C7.96291 25.8247 8.0296 25.9822 8.11447 26.1308L8.11606 26.1336C8.22818 26.3182 8.37199 26.4833 8.54141 26.622C8.62614 26.6982 8.73092 26.751 8.84454 26.7746C8.95928 26.7984 9.07859 26.7915 9.1895 26.7546C9.30045 26.7177 9.39869 26.6524 9.47356 26.5656C9.54722 26.4802 9.59545 26.3773 9.61316 26.2679C9.68626 25.9705 9.66284 25.6588 9.546 25.3745C9.50955 25.2789 9.48094 25.1811 9.4508 25.0782C9.44075 25.0439 9.43056 25.009 9.41981 24.9734C10.3455 24.6261 11.3305 24.1591 11.6768 23.0727C11.8125 22.6973 11.8238 22.2908 11.7092 21.9089C11.5945 21.5266 11.3592 21.1878 11.0357 20.939C10.5954 20.5908 10.081 20.3392 9.52871 20.202ZM8.00161 21.5345C8.01983 21.5294 8.0382 21.5248 8.05662 21.5204C8.65928 21.4295 9.27587 21.5506 9.79286 21.8615C10.0207 22.0136 10.114 22.1825 10.1301 22.3451C10.1466 22.5125 10.0832 22.6939 9.95578 22.8683C9.71505 23.1977 9.27573 23.4614 8.87889 23.5105C8.58959 22.8711 8.29581 22.2058 8.00161 21.5345Z" fill="#3A3B7B"/>
<path d="M13.2016 19.0316C13.8577 18.7408 14.6704 18.6906 15.3064 18.895C15.4665 18.9398 15.6055 19.0367 15.6995 19.169C15.7928 19.3005 15.8359 19.4591 15.8215 19.6175C15.8206 19.7204 15.7943 19.8216 15.7448 19.9129C15.6944 20.0058 15.6215 20.0857 15.5321 20.1459C15.4427 20.2061 15.3396 20.2447 15.2314 20.2586C15.1232 20.2724 15.0131 20.261 14.9104 20.2254L14.9026 20.2227L14.8953 20.219C14.8427 20.1926 14.7869 20.1727 14.7292 20.1598L14.7256 20.159C14.2782 20.045 13.8562 20.2339 13.7021 20.4661C13.6286 20.5768 13.6195 20.6886 13.6807 20.7902C13.7463 20.8991 13.9071 21.0213 14.2325 21.1083C14.322 21.1319 14.4137 21.1547 14.5068 21.1778C14.7641 21.2418 15.0316 21.3082 15.2901 21.4003L15.2911 21.4006C16.4841 21.8363 16.9283 22.7385 16.7763 23.5872C16.6258 24.4264 15.8956 25.1902 14.7974 25.3703C14.3978 25.4554 13.982 25.4388 13.591 25.3223C13.1991 25.2055 12.8458 24.9923 12.5663 24.7038L12.559 24.6963C12.4707 24.5876 12.4114 24.4599 12.3851 24.3244C12.3609 24.2022 12.3736 24.0758 12.4218 23.9603C12.4696 23.8454 12.5506 23.746 12.655 23.6735C12.7654 23.5914 12.8984 23.5421 13.0376 23.5319C13.1764 23.5216 13.3152 23.5506 13.4371 23.6151C13.5588 23.6715 13.672 23.7435 13.7736 23.8291L13.7755 23.8307C13.9552 23.9884 14.1727 24.0295 14.3812 23.9915C14.5928 23.9528 14.7917 23.8327 14.9197 23.6732C15.0468 23.5148 15.0979 23.3266 15.0373 23.144C14.9764 22.9599 14.7931 22.7538 14.3905 22.5814C14.2852 22.5385 14.1761 22.5039 14.0626 22.4703C14.032 22.4612 14.0008 22.4521 13.9693 22.443C13.8854 22.4185 13.799 22.3933 13.7143 22.3656C13.656 22.3465 13.5982 22.3284 13.5409 22.3105C13.3842 22.2615 13.2316 22.2138 13.0846 22.1498C12.7648 22.0453 12.4885 21.8446 12.2968 21.5775C12.1044 21.3093 12.0075 20.9886 12.0207 20.6632C12.0217 19.8703 12.5421 19.324 13.2016 19.0316Z" fill="#3A3B7B"/>
<path d="M21.5196 18.9471C21.3923 18.8875 21.2517 18.8591 21.1102 18.8647C20.9688 18.8703 20.831 18.9096 20.7093 18.9791C20.5884 19.0481 20.4872 19.1447 20.4147 19.2603C20.3482 19.3577 20.3021 19.4667 20.2792 19.581C20.2562 19.6953 20.2568 19.8128 20.2808 19.9268C20.3045 20.0733 20.3307 20.2158 20.3567 20.3563C20.3996 20.5889 20.4414 20.8162 20.469 21.048L20.47 21.0538C20.5328 21.4173 20.5656 21.7849 20.5686 22.1533L20.5689 22.1586C20.5903 22.5564 20.4491 22.9465 20.1754 23.2461L20.1711 23.2514C20.082 23.3609 19.963 23.4445 19.8272 23.4928C19.6915 23.5411 19.5445 23.5522 19.4026 23.5249C19.2606 23.4975 19.1294 23.4328 19.0236 23.338C18.9178 23.2432 18.8415 23.1216 18.8034 22.9876C18.7221 22.7051 18.675 22.4146 18.663 22.1218L18.8019 19.9994C18.804 19.9717 18.8063 19.9432 18.8087 19.9145C18.814 19.8501 18.8194 19.7844 18.8217 19.7232C18.8249 19.6331 18.8221 19.5404 18.8003 19.4527C18.7779 19.363 18.7353 19.2777 18.6598 19.2051C18.585 19.1332 18.484 19.0802 18.357 19.0441C18.1273 18.9803 17.9331 18.9823 17.7712 19.0482C17.6093 19.1141 17.4983 19.2365 17.4198 19.3779C17.3419 19.5181 17.2919 19.6841 17.254 19.8504C17.2259 19.9737 17.2033 20.1032 17.1819 20.2265C17.1745 20.269 17.1672 20.3107 17.1599 20.3512L17.1597 20.3524C17.0449 21.0285 17.0107 21.7149 17.0578 22.3984C17.0666 22.7677 17.1469 23.1323 17.2946 23.4735C17.4612 23.9137 17.763 24.2951 18.1601 24.5674C18.558 24.8403 19.0329 24.9906 19.5219 24.9985C20.0108 25.0065 20.4908 24.8716 20.8981 24.6119C21.3048 24.3526 21.62 23.9809 21.802 23.546C22.0566 22.992 22.1761 22.3896 22.1514 21.7846C22.1365 21.3429 22.1114 20.8978 22.0865 20.4549C22.0743 20.2377 22.0621 20.0209 22.0511 19.8055C22.0456 19.5894 21.9714 19.3802 21.8384 19.2058C21.7561 19.0956 21.6465 19.0066 21.5196 18.9471Z" fill="#3A3B7B"/>
<path d="M26.0222 22.2751C26.0093 22.2908 25.9957 22.3071 25.9815 22.324C25.878 21.7511 25.7821 21.1784 25.6861 20.6048C25.6516 20.3989 25.617 20.1923 25.5822 19.9862L25.5782 19.9632L25.5655 19.9433C25.5415 19.906 25.5392 19.8693 25.5392 19.7911V19.7821L25.5377 19.7731C25.5117 19.6117 25.4356 19.4614 25.3194 19.3421C25.2035 19.223 25.053 19.1402 24.8874 19.1042C24.7221 19.0651 24.5484 19.0737 24.3881 19.129C24.2283 19.1842 24.0889 19.2834 23.9875 19.4141C23.9032 19.5145 23.8341 19.6258 23.7823 19.7447C23.6648 20.0009 23.5462 20.2577 23.4273 20.5152L23.4252 20.5197C23.1284 21.1625 22.8296 21.8097 22.5395 22.462L22.5386 22.4641C22.3605 22.8871 22.2134 23.3327 22.0669 23.777C22.0376 23.8657 22.0084 23.9543 21.9789 24.0427C21.926 24.1829 21.9029 24.3318 21.9108 24.4807C21.9012 24.614 21.9344 24.7469 22.0061 24.8616C22.0792 24.9786 22.1887 25.0706 22.3191 25.1248C22.4574 25.1829 22.6119 25.1953 22.7584 25.1599C22.9045 25.1245 23.0342 25.0436 23.1272 24.9298C23.2459 24.7896 23.348 24.6368 23.4313 24.4748C23.6771 23.9923 23.912 23.5039 24.1458 23.0176C24.2363 22.8295 24.3242 22.661 24.4242 22.4776C24.4311 22.5002 24.4381 22.5222 24.4453 22.5444C24.5501 22.9873 24.7271 23.4116 24.9696 23.8016C25.0155 23.8842 25.0794 23.9565 25.157 24.0133C25.2355 24.0708 25.3261 24.1112 25.4226 24.1317C25.519 24.1522 25.6189 24.1523 25.7154 24.132C25.8117 24.1117 25.9026 24.0713 25.9811 24.014L26.1366 23.9023L27.3435 22.9267L27.2721 23.3632C27.1742 23.9632 27.077 24.5582 26.9737 25.1534C26.9061 25.4172 26.9062 25.6927 26.974 25.9564C27.0033 26.1048 27.0781 26.2415 27.1888 26.3489C27.3004 26.4572 27.4433 26.5308 27.599 26.5602C27.7547 26.5895 27.9161 26.5733 28.062 26.5135C28.2059 26.4546 28.3282 26.3562 28.4138 26.2307C28.6128 25.9937 28.7366 25.7069 28.7706 25.4042C28.8219 24.9768 28.8797 24.5436 28.9376 24.1105C29.0043 23.6113 29.071 23.1123 29.1273 22.6228L29.1275 22.6213C29.1817 22.0855 29.2079 21.5475 29.2061 21.0092C29.218 20.8391 29.1739 20.6696 29.0798 20.5247C28.9855 20.3794 28.8457 20.2664 28.6806 20.2018C28.5088 20.1268 28.3165 20.1068 28.1319 20.1447C27.9486 20.1823 27.7826 20.275 27.6581 20.4094C27.4355 20.607 27.2267 20.8185 27.0329 21.0424L27.0316 21.0439C26.8202 21.2968 26.6101 21.5547 26.4014 21.8109C26.2746 21.9667 26.148 22.1221 26.0222 22.2751Z" fill="#3A3B7B"/>
</g>
<defs>
<clipPath id="clip0_211_2056">
<rect width="32.7153" height="20.186" fill="white" transform="translate(1.1604 7.21948)"/>
</clipPath>
</defs>
</svg>
