<svg width="34" height="34" viewBox="0 0 34 34" fill="none" xmlns="http://www.w3.org/2000/svg">
<g clip-path="url(#clip0_211_2072)">
<path d="M30.0803 8.50283C30.0803 8.8272 30.3465 9.09014 30.6749 9.09014H31.2694C31.5978 9.09014 31.864 8.8272 31.864 8.50283C31.864 8.17847 31.5978 7.91553 31.2694 7.91553H30.6749C30.3465 7.91553 30.0803 8.17847 30.0803 8.50283Z" fill="#212326"/>
<path d="M12.8381 26.7094H15.7264L14.8856 25.8788C14.6626 25.6585 14.3601 25.5348 14.0448 25.5348H12.8381C8.24101 25.5348 4.51431 21.8535 4.51431 17.3125C4.51431 12.7714 8.24101 9.09015 12.8381 9.09014H22.3511C26.9482 9.09014 30.6749 12.7714 30.6749 17.3125C30.6749 21.8535 26.9482 25.5348 22.3511 25.5348H18.7925C18.3194 25.5348 17.8657 25.3491 17.5312 25.0188L16.5462 24.0457C15.9886 23.4949 15.2325 23.1856 14.444 23.1856H12.8381C9.55446 23.1856 6.89255 20.5561 6.89255 17.3125C6.89255 14.0688 9.55446 11.4394 12.8381 11.4394H22.3511C25.6348 11.4394 28.2967 14.0688 28.2967 17.3125C28.2967 20.5561 25.6348 23.1856 22.3511 23.1856H20.0661C19.5931 23.1856 19.1394 22.9999 18.8049 22.6695L17.8197 21.6964C17.2622 21.1457 16.5061 20.8363 15.7177 20.8363H12.8381C10.868 20.8363 9.27079 19.2586 9.27079 17.3125C9.27079 15.3663 10.868 13.7886 12.8381 13.7886H22.3511C24.3213 13.7886 25.9185 15.3663 25.9185 17.3125C25.9185 19.2349 24.36 20.7978 22.423 20.8356L22.4226 20.8363H21.5525C21.0795 20.8363 20.6258 20.6507 20.2913 20.3203L19.3061 19.3472C18.8487 18.8953 18.2575 18.6059 17.6245 18.5166L17.5946 18.4871H12.8381C12.1814 18.4871 11.649 17.9612 11.649 17.3125C11.649 16.6637 12.1814 16.1378 12.8381 16.1378H22.3511C23.0078 16.1378 23.5402 16.6637 23.5402 17.3125C23.5402 17.9612 23.0078 18.4871 22.3511 18.4871H19.9729L20.8137 19.3177C21.0367 19.5379 21.3392 19.6617 21.6545 19.6617H22.3511C23.6645 19.6617 24.7293 18.6099 24.7293 17.3125C24.7293 16.015 23.6645 14.9632 22.3511 14.9632H12.8381C11.5247 14.9632 10.4599 16.015 10.4599 17.3125C10.4599 18.6099 11.5247 19.6617 12.8381 19.6617H17.2041C17.6771 19.6617 18.1308 19.8473 18.4653 20.1777L19.4505 21.1508C20.008 21.7015 20.7641 22.0109 21.5525 22.0109H22.6484V22.0019C25.1368 21.8503 27.1076 19.8087 27.1076 17.3125C27.1076 14.7176 24.978 12.614 22.3511 12.614H12.8381C10.2112 12.614 8.08167 14.7176 8.08167 17.3125C8.08167 19.9074 10.2112 22.0109 12.8381 22.0109H15.7177C16.1907 22.0109 16.6444 22.1966 16.9789 22.527L17.9641 23.5001C18.5216 24.0508 19.2777 24.3602 20.0661 24.3602H22.3511C26.2915 24.3602 29.4858 21.2048 29.4858 17.3125C29.4858 13.4201 26.2915 10.2648 22.3511 10.2648H12.8381C8.89774 10.2648 5.70343 13.4201 5.70343 17.3125C5.70343 21.2048 8.89774 24.3602 12.8381 24.3602H14.444C14.9171 24.3602 15.3708 24.5458 15.7053 24.8762L16.6904 25.8493C17.2479 26.4 18.0041 26.7094 18.7925 26.7094H22.3511C27.605 26.7094 31.864 22.5023 31.864 17.3125C31.864 12.1227 27.605 7.91553 22.3511 7.91553L12.8381 7.91553C7.58429 7.91553 3.32519 12.1227 3.3252 17.3125C3.3252 22.5023 7.58429 26.7094 12.8381 26.7094Z" fill="#212326"/>
</g>
<defs>
<clipPath id="clip0_211_2072">
<rect width="28.5388" height="18.7939" fill="white" transform="translate(3.3252 7.91553)"/>
</clipPath>
</defs>
</svg>
