<svg width="34" height="34" viewBox="0 0 34 34" fill="none" xmlns="http://www.w3.org/2000/svg">
<g clip-path="url(#clip0_211_2046)">
<path fill-rule="evenodd" clip-rule="evenodd" d="M9.97901 3.14966C13.8233 3.14966 16.9397 6.26607 16.9397 10.1104V3.14966H23.9004C27.7446 3.14966 30.8611 6.26607 30.8611 10.1104C30.8611 13.9546 27.7446 17.071 23.9004 17.071C27.7446 17.071 30.8611 20.1875 30.8611 24.0317C30.8611 25.9406 30.0927 27.67 28.8484 28.9275L28.8224 28.9537L28.7993 28.9767C27.5415 30.2228 25.8108 30.9924 23.9004 30.9924C22.003 30.9924 20.2829 30.2332 19.0272 29.002C19.0109 28.986 18.9946 28.9699 18.9784 28.9537C18.9632 28.9385 18.948 28.9232 18.9329 28.9078C17.7001 27.6519 16.9397 25.9306 16.9397 24.0317C16.9397 27.876 13.8233 30.9924 9.97901 30.9924C6.13472 30.9924 3.01831 27.876 3.01831 24.0317V17.071H9.97901C6.13472 17.071 3.01831 13.9546 3.01831 10.1104C3.01831 6.26607 6.13472 3.14966 9.97901 3.14966ZM15.5476 10.1104C15.5476 13.1858 13.0544 15.6789 9.97901 15.6789V4.5418C13.0544 4.5418 15.5476 7.03492 15.5476 10.1104ZM29.469 24.0317C29.469 20.9563 26.9758 18.4632 23.9004 18.4632C20.825 18.4632 18.3318 20.9563 18.3318 24.0317H29.469ZM4.41045 18.4632V24.0317C4.41045 27.1072 6.90358 29.6003 9.97901 29.6003C13.0544 29.6003 15.5476 27.1072 15.5476 24.0317V18.4632H4.41045ZM18.3318 15.6789V4.5418H23.9004C26.9758 4.5418 29.469 7.03492 29.469 10.1104C29.469 13.1858 26.9758 15.6789 23.9004 15.6789H18.3318Z" fill="#263238"/>
</g>
<defs>
<clipPath id="clip0_211_2046">
<rect width="27.8428" height="27.8428" fill="white" transform="translate(3.01831 3.14966)"/>
</clipPath>
</defs>
</svg>
